<svg width="50" height="34" viewBox="0 0 50 34" fill="none" xmlns="http://www.w3.org/2000/svg">
<g clip-path="url(#clip0_384_1689)">
<path d="M0 0H50V33.3333H0V0Z" fill="#ED2024"/>
<path d="M18.0557 6.77756V15.6664L22.0001 17.0553L19.2223 19.7776L20.5557 21.4442L23.5001 18.3887L24.1668 19.6664L22.5001 22.3887L24.5001 25.4998L23.5001 26.9442L25.0557 28.9442L26.5557 26.8887L25.7223 25.4442L27.389 22.222L25.889 19.6664L26.5557 18.3887L29.4446 21.4442L30.8334 19.8331L27.9446 16.9998L31.9446 15.5553V6.77756L29.0557 7.83312L29.0001 9.94423L27.1668 10.1109V8.66645L28.1112 7.38867L31.2223 6.16645L29.9446 5.94423L30.7223 5.27756L31.2223 5.49978L30.7779 4.72201L30.0001 4.99978L29.4446 4.38867L26.389 4.99978L27.1668 5.61089L25.0557 8.33312L22.9446 5.66645L23.6668 5.05534L20.889 4.38867L20.1112 4.99978L19.2779 4.77756L18.8334 5.55534L19.3334 5.222L20.2223 5.83312L18.9446 6.11089L22.0001 7.222L22.889 8.49978V10.1109L21.0557 9.94423V7.94423L18.0557 6.77756Z" fill="#212121"/>
<path d="M14.5557 13.889H18.1112V15.2779H14.5557V13.889ZM14.5557 11.6112H18.1112V13.1112H14.5557V11.6112ZM14.5557 9.27789H18.1112V10.7223H14.5557V9.27789ZM14.5557 7.05566H18.1112V8.44455H14.5557V7.05566Z" fill="#212121"/>
<path d="M31.8887 13.889H35.4442V15.2779H31.8887V13.889ZM31.8887 11.6112H35.4442V13.1112H31.8887V11.6112ZM31.8887 9.27789H35.4442V10.7223H31.8887V9.27789ZM31.8887 7.05566H35.4442V8.44455H31.8887V7.05566Z" fill="#212121"/>
<path d="M29.6662 20.0557H33.2218V21.1112H29.6662V20.0557ZM16.7773 20.0557H20.3329V21.1112H16.7773V20.0557Z" fill="#212121"/>
</g>
<defs>
<clipPath id="clip0_384_1689">
<rect width="50" height="33.3333" fill="white"/>
</clipPath>
</defs>
</svg>
