<svg width="50" height="34" viewBox="0 0 50 34" fill="none" xmlns="http://www.w3.org/2000/svg">
<g clip-path="url(#clip0_384_1682)">
<path d="M0 0.356445H49.9025V33.6898H0V0.356445Z" fill="white"/>
<path d="M0 0.356445H49.9025V9.24533H0V0.356445ZM0 24.8009H49.9025V33.6898H0V24.8009Z" fill="#D03433"/>
<path d="M0 9.22559H49.9025V24.8201H0V9.22559Z" fill="#FFDA44"/>
<path d="M17.2998 15.9121H19.5177V17.0232H17.2998V15.9121Z" fill="white"/>
<path d="M15.9684 19.2452C15.9684 19.9119 16.6338 20.3563 17.2992 20.3563C17.9645 20.3563 18.6299 19.9119 18.6299 19.2452L18.8517 15.9119H15.7466L15.9684 19.2452ZM14.6377 15.9119C14.6377 15.2452 15.0813 14.8008 15.5249 14.8008H18.8517C19.5171 14.8008 19.9606 15.2452 19.9606 15.6897V15.9119L19.7388 19.2452C19.5171 20.5786 18.6299 21.4674 17.2992 21.4674C15.9684 21.4674 15.0813 20.5786 14.8595 19.2452L14.6377 15.9119Z" fill="#A41517"/>
<path d="M15.0817 17.0233H19.5175V18.1344H18.4086L17.2996 20.3567L16.1907 18.1344H15.0817V17.0233ZM11.7549 13.69H13.9728V21.4678H11.7549V13.69ZM20.6264 13.69H22.8443V21.4678H20.6264V13.69ZM15.0817 12.5789C15.0817 11.9122 15.5253 11.4678 16.1907 11.4678H18.4086C19.0739 11.4678 19.5175 11.9122 19.5175 12.5789V13.0233C19.5175 13.4678 19.2957 13.69 18.8521 13.69H15.5253C15.3035 13.69 15.0817 13.4678 15.0817 13.2456V12.5789Z" fill="#A41517"/>
</g>
<defs>
<clipPath id="clip0_384_1682">
<rect width="50" height="33.3333" fill="white" transform="translate(0 0.333008)"/>
</clipPath>
</defs>
</svg>
