<svg width="50" height="34" viewBox="0 0 50 34" fill="none" xmlns="http://www.w3.org/2000/svg">
<g clip-path="url(#clip0_384_1766)">
<path d="M0 0.00927734H50V33.3426H0V0.00927734Z" fill="#F0F0F0"/>
<path d="M21.7778 13.3324H0V19.999H21.7778V33.3324H28.4444V19.999H50.2222V13.3324H28.4444V-0.000976562H21.7778V13.3324Z" fill="#EB000E"/>
<path d="M38.4446 5.99919L38.0001 3.33252H40.2223L39.7779 5.99919L42.4446 5.55474V7.77696L39.7779 7.33252L40.2223 9.99919H38.0001L38.4446 7.33252L35.7779 7.77696V5.55474L38.4446 5.99919ZM10.2223 5.99919L9.77789 3.33252H12.0001L11.5557 5.99919L14.2223 5.55474V7.77696L11.5557 7.33252L12.0001 9.99919H9.77789L10.2223 7.33252L7.55566 7.77696V5.55474L10.2223 5.99919ZM10.2223 25.9992L9.77789 23.3325H12.0001L11.5557 25.9992L14.2223 25.5547V27.777L11.5557 27.3325L12.0001 29.9992H9.77789L10.2223 27.3325L7.55566 27.777V25.5547L10.2223 25.9992ZM38.4446 25.9992L38.0001 23.3325H40.2223L39.7779 25.9992L42.4446 25.5547V27.777L39.7779 27.3325L40.2223 29.9992H38.0001L38.4446 27.3325L35.7779 27.777V25.5547L38.4446 25.9992Z" fill="#EB000E"/>
</g>
<defs>
<clipPath id="clip0_384_1766">
<rect width="50" height="33.3333" fill="white" transform="translate(0 -0.000976562)"/>
</clipPath>
</defs>
</svg>
