<svg width="50" height="34" viewBox="0 0 50 34" fill="none" xmlns="http://www.w3.org/2000/svg">
<g clip-path="url(#clip0_384_1780)">
<path d="M0 0.666504H50V33.9998H0V0.666504Z" fill="white"/>
<path d="M0 0.666504H50V11.7776H0V0.666504Z" fill="#D80027"/>
<path d="M0 22.8887H50V33.9998H0V22.8887Z" fill="#0052B4"/>
<path d="M30.146 11.6998V7.41132L31.8517 6.00781L33.5768 7.41132V11.6998H30.146ZM19.8537 11.6998V7.41132L18.1675 6.00781L16.4229 7.41132V11.6998H19.8537ZM23.2845 11.6998V7.41132L24.9999 6.00781L26.7153 7.41132V11.6998H23.2845Z" fill="#338AF3"/>
<path d="M30.1459 11.6998H26.7151V7.41132L28.4208 6.00781L30.1459 7.41132V11.6998ZM23.2843 11.6998H19.8535V7.41132L21.5592 6.00781L23.2843 7.41132V11.6998Z" fill="#0052B4"/>
<path d="M16.4229 11.6997V21.6315C16.4229 23.9999 17.8264 26.1344 19.8731 27.421C21.9492 28.727 23.9765 28.8537 24.9999 28.8537C26.0232 28.8537 28.0603 28.688 30.1266 27.4112C32.1733 26.1441 33.5768 23.9902 33.5768 21.6315V11.6997H16.4229Z" fill="white"/>
<path fill-rule="evenodd" clip-rule="evenodd" d="M16.374 11.6509H33.6255V21.6314C33.6255 24.0099 32.2106 26.1783 30.1521 27.4525C28.0752 28.7359 26.028 28.9023 24.9998 28.9023C23.9722 28.9023 21.9343 28.7752 19.8471 27.4621C17.7891 26.1685 16.374 24.0198 16.374 21.6314V11.6509ZM16.4715 11.7483V21.6314C16.4715 23.9799 17.8635 26.1001 19.899 27.3796C21.9639 28.6786 23.9806 28.8049 24.9998 28.8049C26.0182 28.8049 28.0451 28.6399 30.1008 27.3697C32.1359 26.1098 33.528 23.9703 33.528 21.6314V11.7483H16.4715Z" fill="#D80027"/>
<path d="M16.4229 11.6997H19.8537V15.1305H16.4229V11.6997ZM23.2845 11.6997H26.7153V15.1305H23.2845V11.6997ZM30.146 11.6997H33.5768V15.1305H30.146V11.6997ZM19.8537 15.1305H23.2845V18.5613H19.8537V15.1305ZM26.7153 15.1305H30.146V18.5613H26.7153V15.1305ZM16.4229 18.5613H19.8537V21.9921H16.4229V18.5613ZM19.8537 21.9921H23.2845V25.4229H19.8537V21.9921ZM23.2845 18.5613H26.7153V21.9921H23.2845V18.5613ZM30.146 18.5613H33.5768V21.9921H30.146V18.5613ZM26.7153 21.9921H30.146V25.4229H26.7153V21.9921ZM30.146 27.4015C30.9843 26.8751 31.725 26.2026 32.2903 25.4229H30.146V27.4015ZM17.7094 25.4229C18.2747 26.2026 19.0057 26.8751 19.8537 27.4112V25.4229H17.7094ZM23.2845 25.4229V28.7075C23.9862 28.8245 24.5807 28.8537 24.9999 28.8537C25.419 28.8537 26.0135 28.8245 26.7153 28.6978V25.4229H23.2845Z" fill="#D80027"/>
</g>
<defs>
<clipPath id="clip0_384_1780">
<rect width="50" height="33.3333" fill="white" transform="translate(0 0.666504)"/>
</clipPath>
</defs>
</svg>
