<svg width="50" height="34" viewBox="0 0 50 34" fill="none" xmlns="http://www.w3.org/2000/svg">
<g clip-path="url(#clip0_384_1770)">
<path d="M0 0.333008H50V33.6656H0V0.333008Z" fill="#D80027"/>
<path d="M19.2032 0.333008V33.6656H0V0.333008H19.2032Z" fill="#6DA544"/>
<path d="M19.2031 23.249C22.6549 23.249 25.4531 20.4508 25.4531 16.999C25.4531 13.5472 22.6549 10.749 19.2031 10.749C15.7513 10.749 12.9531 13.5472 12.9531 16.999C12.9531 20.4508 15.7513 23.249 19.2031 23.249Z" fill="#FFDA44"/>
<path d="M15.6875 13.874V17.7804C15.6875 19.722 17.2615 21.296 19.2031 21.296C21.1447 21.296 22.7188 19.722 22.7188 17.7804V13.874H15.6875Z" fill="#D80027"/>
<path d="M19.2031 18.9521C18.5569 18.9521 18.0312 18.4265 18.0312 17.7803V16.2178H20.3751V17.7803C20.375 18.4264 19.8492 18.9521 19.2031 18.9521Z" fill="white"/>
</g>
<defs>
<clipPath id="clip0_384_1770">
<rect width="50" height="33.3333" fill="white" transform="translate(0 0.33252)"/>
</clipPath>
</defs>
</svg>
