<svg width="50" height="34" viewBox="0 0 50 34" fill="none" xmlns="http://www.w3.org/2000/svg">
<g clip-path="url(#clip0_384_1729)">
<path d="M0 0H50V33.3337H0V0Z" fill="#0052B4"/>
<path d="M0 0H50V11.1108H0V0Z" fill="#D80027"/>
<path d="M0 22.2217H50V33.3325H0V22.2217Z" fill="#F0F0F0"/>
<path d="M12.6436 9.41992V17.734C12.6436 22.4634 18.822 23.9124 18.822 23.9124C18.822 23.9124 25.0002 22.4632 25.0002 17.734V9.41992H12.6436Z" fill="#D80027"/>
<path d="M15.1988 10.8692H22.445V7.9707L20.9957 8.69531L18.8218 6.52148L16.648 8.69531L15.1988 7.9707V10.8692ZM23.551 18.8915L18.8409 14.1814L14.1309 18.8915L15.6681 20.4286L18.8409 17.2558L22.0138 20.4286L23.551 18.8915Z" fill="#FFDA44"/>
<path d="M23.551 14.4925H21.3533C21.4814 14.2725 21.5488 14.0226 21.5487 13.7681C21.5487 12.9677 20.8998 12.3188 20.0995 12.3188C19.5465 12.3188 19.0662 12.6286 18.8219 13.0841C18.5775 12.6287 18.0972 12.3188 17.5442 12.3188C16.7439 12.3188 16.095 12.9677 16.095 13.7681C16.095 14.0323 16.1669 14.2793 16.2904 14.4925H14.1309C14.1309 15.2929 14.828 15.9417 15.6283 15.9417H15.5801C15.5801 16.7421 16.2289 17.3909 17.0293 17.3909C17.0293 18.0996 17.5382 18.6884 18.2104 18.8144L17.0684 21.3926C17.6312 21.6215 18.2331 21.7391 18.8407 21.7387C19.4483 21.7391 20.0503 21.6215 20.6131 21.3926L19.4711 18.8144C20.1433 18.6884 20.6521 18.0996 20.6521 17.3909C21.4525 17.3909 22.1014 16.7421 22.1014 15.9417H22.0531C22.8538 15.9417 23.551 15.2929 23.551 14.4925Z" fill="#F0F0F0"/>
</g>
<defs>
<clipPath id="clip0_384_1729">
<rect width="50" height="33.3333" fill="white"/>
</clipPath>
</defs>
</svg>
