<svg width="50" height="34" viewBox="0 0 50 34" fill="none" xmlns="http://www.w3.org/2000/svg">
<g clip-path="url(#clip0_384_1710)">
<path d="M0 0.333496H50V33.6661H0V0.333496Z" fill="#F0F0F0"/>
<path d="M0 11.4443H50V22.5552H0V11.4443Z" fill="#0052B4"/>
<path d="M0 22.5552H50V33.666H0V22.5552Z" fill="#D80027"/>
<path d="M22.8134 11.2025V12.6515C22.8134 15.9797 18.4655 16.9993 18.4655 16.9993C18.4655 16.9993 14.1177 15.9798 14.1177 12.6515V11.2025L14.1035 6.88731L22.7991 6.86133L22.8134 11.2025Z" fill="#F0F0F0"/>
<path d="M22.8134 11.2025V12.6515C22.8134 15.9797 18.4655 16.9993 18.4655 16.9993C18.4655 16.9993 14.1177 15.9798 14.1177 12.6515V11.2025L14.1035 6.88731L22.7991 6.86133L22.8134 11.2025Z" fill="#0052B4"/>
<path d="M22.8129 11.2025V12.6515C22.8129 15.9797 18.465 16.9993 18.465 16.9993C18.465 16.9993 14.1172 15.9798 14.1172 12.6515V11.2025L15.5672 12.6515L18.465 10.4775L21.364 12.6515L22.8129 11.2025Z" fill="#F0F0F0"/>
</g>
<defs>
<clipPath id="clip0_384_1710">
<rect width="50" height="33.3333" fill="white" transform="translate(0 0.333008)"/>
</clipPath>
</defs>
</svg>
