<svg width="50" height="34" viewBox="0 0 50 34" fill="none" xmlns="http://www.w3.org/2000/svg">
<g clip-path="url(#clip0_384_1721)">
<path d="M0 0.666504H50V33.9991H0V0.666504Z" fill="#F0F0F0"/>
<path d="M0 11.5361H50V23.1296H0V11.5361Z" fill="#0052B4"/>
<path d="M0 23.1294H50V33.9989H0V23.1294Z" fill="#D80027"/>
<path d="M12.6436 10.0864V18.4005C12.6436 23.1299 18.822 24.5789 18.822 24.5789C18.822 24.5789 25.0002 23.1297 25.0002 18.4005V10.0864H12.6436Z" fill="#F0F0F0"/>
<path d="M14.2705 10.3301V18.3321C14.2705 18.8665 14.3892 19.3712 14.6243 19.8443H23.0198C23.255 19.3713 23.3736 18.8666 23.3736 18.3321V10.3301H14.2705Z" fill="#D80027"/>
<path d="M21.6117 15.9097H19.5194V14.5148H20.9144V13.12H19.5194V11.7251H18.1246V13.12H16.7299V14.5148H18.1246V15.9097H16.0322V17.3046H18.1246V18.6994H19.5194V17.3046H21.6117V15.9097Z" fill="#F0F0F0"/>
<path d="M16.5264 21.7915C17.4252 22.3562 18.3486 22.6844 18.8215 22.8302C19.2943 22.6843 20.2178 22.3563 21.1166 21.7915C22.023 21.2219 22.6586 20.5702 23.0193 19.8443C22.6078 19.5526 22.1157 19.3962 21.6113 19.3968C21.4203 19.3968 21.2348 19.4194 21.0564 19.4609C20.6784 18.602 19.8203 18.002 18.8217 18.002C17.8229 18.002 16.9649 18.602 16.5869 19.4609C16.405 19.4184 16.2188 19.3969 16.032 19.3968C15.5276 19.3962 15.0355 19.5526 14.624 19.8443C14.9845 20.5702 15.6199 21.2219 16.5264 21.7915Z" fill="#0052B4"/>
</g>
<defs>
<clipPath id="clip0_384_1721">
<rect width="50" height="33.3333" fill="white" transform="translate(0 0.666016)"/>
</clipPath>
</defs>
</svg>
