<svg width="50" height="34" viewBox="0 0 50 34" fill="none" xmlns="http://www.w3.org/2000/svg">
<g clip-path="url(#clip0_384_1763)">
<path d="M0 0.666016H50V33.9993H0V0.666016Z" fill="#E30A17"/>
<path d="M25.3117 12.2255C24.0349 11.2995 22.4851 10.8025 20.8965 10.8122C16.9198 10.8122 13.7035 13.8142 13.7035 17.5276C13.7035 21.2411 16.9296 24.243 20.8965 24.243C22.5631 24.243 24.1031 23.7167 25.3117 22.8297C22.3877 26.5919 16.9588 27.2742 13.1966 24.3405C9.43447 21.4067 8.7522 15.9876 11.6859 12.2255C14.6197 8.46327 20.0388 7.78101 23.8009 10.7147C24.3662 11.1533 24.8731 11.6699 25.3117 12.2255ZM29.2005 18.6387L27.4364 20.7732L27.5534 18.0052L24.9803 16.9915L27.6411 16.2508L27.8165 13.4925L29.337 15.8025L32.0173 15.1104L30.3117 17.2547L31.8029 19.5841L29.2005 18.6387Z" fill="white"/>
</g>
<defs>
<clipPath id="clip0_384_1763">
<rect width="50" height="33.3333" fill="white" transform="translate(0 0.666016)"/>
</clipPath>
</defs>
</svg>
