<svg width="95" height="94" viewBox="0 0 95 94" fill="none" xmlns="http://www.w3.org/2000/svg"><g id="1"><g id="Group"><path id="Vector" d="M34.0977 19.6445H60.9023C62.4232 19.6445 63.6562 18.4115 63.6562 16.8906V8.8125C63.6562 7.29161 62.4232 6.05859 60.9023 6.05859H55.738C54.6416 2.55177 51.3632 0 47.5 0C43.6298 0 40.3465 2.56113 39.2561 6.07769L34.1043 6.05859C32.567 6.05859 31.3438 7.2995 31.3438 8.8125V16.8906C31.3438 18.4115 32.5768 19.6445 34.0977 19.6445Z" fill="#2D2D2D"/><path id="Vector_2" d="M34.2812 45.5312C36.005 45.5312 37.4023 44.1339 37.4023 42.4102C37.4023 40.6864 36.005 39.2891 34.2812 39.2891C32.5575 39.2891 31.1602 40.6864 31.1602 42.4102C31.1602 44.1339 32.5575 45.5312 34.2812 45.5312Z" fill="#2D2D2D"/><path id="Vector_3" d="M73.9375 11.9336H69.1641V16.8906C69.1641 21.4461 65.458 25.1523 60.9023 25.1523H34.0977C29.542 25.1523 25.8359 21.4461 25.8359 16.8906V11.9336H21.0625C16.3045 11.9336 12.4336 15.8045 12.4336 20.5625V85.3711C12.4336 90.1291 16.3045 94 21.0625 94H73.9375C78.6955 94 82.5664 90.1291 82.5664 85.3711V20.5625C82.5664 15.8045 78.6955 11.9336 73.9375 11.9336ZM25.6523 42.4102C25.6523 37.6521 29.5232 33.7812 34.2812 33.7812C39.0393 33.7812 42.9102 37.6521 42.9102 42.4102C42.9102 47.1682 39.0393 51.0391 34.2812 51.0391C29.5232 51.0391 25.6523 47.1682 25.6523 42.4102ZM67.0722 77.1817C68.1477 78.257 68.1477 80.0008 67.0722 81.0763C65.9967 82.1518 64.2531 82.1518 63.1776 81.0763L60.7188 78.6172L58.2597 81.0763C57.1842 82.1518 55.4406 82.1518 54.3651 81.0763C53.2896 80.001 53.2896 78.2572 54.3651 77.1817L56.8242 74.7227L54.3651 72.2636C53.2896 71.1883 53.2896 69.4445 54.3651 68.369C55.4404 67.2937 57.1842 67.2937 58.2597 68.369L60.7188 70.8281L63.1778 68.369C64.2531 67.2937 65.9969 67.2937 67.0724 68.369C68.1479 69.4443 68.1479 71.1881 67.0724 72.2636L64.6133 74.7227L67.0722 77.1817ZM68.5409 42.8886C67.4655 43.9641 65.7219 43.9641 64.6464 42.8886L63.4727 41.7149V42.4102C63.4727 53.3626 55.9187 57.7652 49.2541 61.6495C42.6976 65.4706 37.0352 68.7709 37.0352 77.6602V79.1289C37.0352 80.6498 35.8021 81.8828 34.2812 81.8828C32.7604 81.8828 31.5273 80.6498 31.5273 79.1289V77.6602C31.5273 72.2474 33.1595 67.8289 36.5171 64.1521C39.356 61.0433 42.9779 58.9323 46.4805 56.8909C52.8969 53.1515 57.9648 50.1977 57.9648 42.4102V41.7149L56.7909 42.8886C55.7156 43.9639 53.9719 43.9639 52.8964 42.8886C51.8209 41.8133 51.8209 40.0695 52.8964 38.994L58.7714 33.119C59.8467 32.0437 61.5905 32.0437 62.6659 33.119L68.5409 38.994C69.6164 40.0695 69.6164 41.8133 68.5409 42.8886Z" fill="#2D2D2D"/></g></g></svg>