<svg width="91" height="88" viewBox="0 0 91 88" fill="none" xmlns="http://www.w3.org/2000/svg"><g id="2"><g id="_x36_7"><path id="Vector" d="M77.4673 31.6885H42.8173C37.5384 31.6885 33.2461 35.9023 33.2461 41.0638V74.9269C33.2461 80.0884 37.5384 84.3023 42.8173 84.3023H77.4673C82.7462 84.3023 87.0385 80.0884 87.0385 74.9269V41.0638C87.0385 35.9023 82.7462 31.6885 77.4673 31.6885ZM49.9481 54.1623C46.4692 54.1623 43.6481 51.4038 43.6481 48.0192C43.6481 44.6177 46.4692 41.8593 49.9481 41.8593C53.4096 41.8593 56.2308 44.6177 56.2308 48.0192C56.2308 51.4038 53.4096 54.1623 49.9481 54.1623ZM70.3365 74.1146C66.875 74.1146 64.0538 71.3562 64.0538 67.9716C64.0538 64.57 66.875 61.8115 70.3365 61.8115C73.8154 61.8115 76.6192 64.57 76.6192 67.9716C76.6192 71.3562 73.8154 74.1146 70.3365 74.1146Z" fill="#2D2D2D"/><path id="Vector_2" d="M42.8173 28.304H57.7539V13.0563C57.7539 7.89475 53.4615 3.69775 48.1827 3.69775H13.5326C8.25382 3.69775 3.96155 7.89475 3.96155 13.0563V46.9363C3.96155 52.0978 8.25382 56.2947 13.5326 56.2947H29.7846V41.0639C29.7846 34.024 35.6346 28.304 42.8173 28.304ZM41.0692 13.8685C44.5308 13.8685 47.3519 16.627 47.3519 20.0116C47.3519 23.4132 44.5308 26.1547 41.0692 26.1547C37.5904 26.1547 34.7692 23.4132 34.7692 20.0116C34.7692 16.627 37.5904 13.8685 41.0692 13.8685ZM20.6634 46.1071C17.1847 46.1071 14.3635 43.3655 14.3635 39.964C14.3635 36.5624 17.1847 33.8209 20.6634 33.8209C24.1249 33.8209 26.9461 36.5624 26.9461 39.964C26.9461 43.3655 24.1249 46.1071 20.6634 46.1071ZM20.6634 26.1547C17.1847 26.1547 14.3635 23.4132 14.3635 20.0116C14.3635 16.627 17.1847 13.8685 20.6634 13.8685C24.1249 13.8685 26.9461 16.627 26.9461 20.0116C26.9461 23.4132 24.1249 26.1547 20.6634 26.1547Z" fill="#2D2D2D"/></g></g></svg>