<svg width="89" height="90" viewBox="0 0 89 90" fill="none" xmlns="http://www.w3.org/2000/svg"><g id="6" clip-path="url(#clip0_169_105)"><g id="Group"><path id="Vector" d="M41.9076 89.8884V52.4482L18.9283 81.5033C25.6725 86.4883 33.5844 89.391 41.9076 89.8884Z" fill="#2D2D2D"/><path id="Vector_2" d="M47.0601 47.6362V89.8886C57.7643 89.2491 67.7939 84.6359 75.5346 76.7307C83.2771 68.8237 87.7982 58.5765 88.4247 47.6362H47.0601Z" fill="#2D2D2D"/><path id="Vector_3" d="M70.2194 25.1299H76.6545V42.3665H70.2194V25.1299Z" fill="#2D2D2D"/><path id="Vector_4" d="M13.4501 13.2715C5.09903 21.8081 0.5 33.0768 0.5 45.0014C0.5 56.9261 5.09903 68.1947 13.4501 76.7313C13.9348 77.2267 14.4293 77.708 14.9317 78.1773L41.9076 44.0689V0.111816C31.2 0.753242 21.1807 5.36908 13.4501 13.2715Z" fill="#2D2D2D"/><path id="Vector_5" d="M47.0601 19.8955H53.4793V42.3667H47.0601V19.8955Z" fill="#2D2D2D"/><path id="Vector_6" d="M58.6317 7.21582H65.0669V42.367H58.6317V7.21582Z" fill="#2D2D2D"/><path id="Vector_7" d="M81.8072 32.1758H88.5V42.3669H81.8072V32.1758Z" fill="#2D2D2D"/></g></g><defs><clipPath id="clip0_169_105"><rect width="88" height="90" fill="white" transform="translate(0.5)"/></clipPath></defs></svg>