<svg width="89" height="90" viewBox="0 0 89 90" fill="none" xmlns="http://www.w3.org/2000/svg">
<g id="4" clip-path="url(#clip0_169_140)">
<g id="long term">
<path id="Vector" d="M59.9473 8.4375H48.9473C48.2179 8.4375 47.5184 8.14118 47.0027 7.61374C46.487 7.08629 46.1973 6.37092 46.1973 5.625C46.1973 4.87908 46.487 4.16371 47.0027 3.63626C47.5184 3.10882 48.2179 2.8125 48.9473 2.8125H59.9473C60.6766 2.8125 61.3761 3.10882 61.8918 3.63626C62.4075 4.16371 62.6973 4.87908 62.6973 5.625C62.6973 6.37092 62.4075 7.08629 61.8918 7.61374C61.3761 8.14118 60.6766 8.4375 59.9473 8.4375Z" fill="#2D2D2D"/>
<path id="Vector_2" d="M54.4473 16.875C53.7179 16.875 53.0184 16.5787 52.5027 16.0512C51.987 15.5238 51.6973 14.8084 51.6973 14.0625V5.625C51.6973 4.87908 51.987 4.16371 52.5027 3.63626C53.0184 3.10882 53.7179 2.8125 54.4473 2.8125C55.1766 2.8125 55.8761 3.10882 56.3918 3.63626C56.9075 4.16371 57.1973 4.87908 57.1973 5.625V14.0625C57.1973 14.8084 56.9075 15.5238 56.3918 16.0512C55.8761 16.5787 55.1766 16.875 54.4473 16.875Z" fill="#2D2D2D"/>
<path id="Vector_3" d="M29.4152 26.7597C29.054 26.7602 28.6963 26.6876 28.3627 26.5463C28.029 26.4049 27.7259 26.1975 27.4709 25.9359L23.5824 21.9588C23.0815 21.4283 22.8043 20.7179 22.8106 19.9804C22.8168 19.243 23.106 18.5376 23.6159 18.0161C24.1258 17.4947 24.8155 17.1989 25.5366 17.1925C26.2576 17.1861 26.9523 17.4696 27.4709 17.9819L31.3597 21.9588C31.7442 22.3521 32.006 22.8532 32.1121 23.3987C32.2181 23.9443 32.1636 24.5097 31.9555 25.0235C31.7474 25.5374 31.3949 25.9766 30.9428 26.2856C30.4906 26.5947 29.959 26.7596 29.4152 26.7597Z" fill="#2D2D2D"/>
<path id="Vector_4" d="M79.48 26.7601C78.9362 26.7599 78.4046 26.5949 77.9525 26.2859C77.5004 25.9768 77.148 25.5376 76.9399 25.0238C76.7318 24.5099 76.6773 23.9445 76.7834 23.399C76.8895 22.8535 77.1513 22.3524 77.5358 21.9591L81.4256 17.9822C81.6795 17.7145 81.9829 17.5012 82.3182 17.3545C82.6535 17.2079 83.0139 17.1309 83.3786 17.128C83.7432 17.1252 84.1048 17.1965 84.4422 17.3379C84.7796 17.4793 85.0862 17.6879 85.3441 17.9516C85.6019 18.2153 85.8059 18.5288 85.9442 18.8739C86.0825 19.219 86.1523 19.5888 86.1495 19.9617C86.1468 20.3346 86.0715 20.7033 85.9281 21.0462C85.7848 21.3891 85.5761 21.6994 85.3144 21.9591L81.4237 25.9363C81.1687 26.1977 80.8657 26.4051 80.5322 26.5464C80.1986 26.6878 79.8411 26.7604 79.48 26.7601Z" fill="#2D2D2D"/>
<path id="Vector_5" d="M18.4149 41.9805L0.500006 47.7663V70.8769C0.411633 73.4883 0.951194 76.082 2.07136 78.4305C6.00001 86.4017 15.9 88.684 18.4149 89.1661C20.9289 88.684 30.7976 86.4017 34.7262 78.3981C35.8398 76.0932 36.3795 73.5427 36.2976 70.9731V47.7663L18.4149 41.9805ZM31.5833 59.8519L19.3262 72.3555C19.0393 72.6604 18.6952 72.9029 18.3145 73.0686C17.9338 73.2342 17.5243 73.3196 17.1106 73.3196C16.6968 73.3196 16.2873 73.2342 15.9066 73.0686C15.5259 72.9029 15.1818 72.6604 14.8949 72.3555L8.3892 65.734C8.0978 65.4367 7.86661 65.0835 7.70886 64.6946C7.55112 64.3058 7.46992 63.889 7.46992 63.468C7.46992 63.047 7.55112 62.6301 7.70886 62.2413C7.86661 61.8525 8.0978 61.4993 8.3892 61.2019C8.98256 60.5997 9.78461 60.2618 10.6206 60.2618C11.4565 60.2618 12.2586 60.5997 12.8519 61.2019L17.1262 65.5413L27.12 55.3199C27.7134 54.7177 28.5154 54.3797 29.3514 54.3797C30.1873 54.3797 30.9894 54.7177 31.5827 55.3199C31.8741 55.6172 32.1054 55.9703 32.2632 56.3592C32.421 56.748 32.5022 57.1648 32.5023 57.5858C32.5023 58.0068 32.4212 58.4236 32.2635 58.8125C32.1058 59.2013 31.8746 59.5546 31.5833 59.8519Z" fill="#2D2D2D"/>
<path id="Vector_6" d="M72.786 47.4129C72.7929 46.6123 73.0941 45.8438 73.6299 45.2601C74.1656 44.6764 74.8966 44.3204 75.6773 44.2629C75.1597 40.5075 73.7218 36.9471 71.4973 33.9129C70.9419 34.4172 70.2286 34.7022 69.486 34.7164C68.6522 34.7129 67.8522 34.3788 67.2543 33.7843C66.7066 33.2081 66.3899 32.4429 66.3666 31.6396C66.3433 30.8363 66.6152 30.0533 67.1287 29.4449C64.1619 27.1697 60.6806 25.6991 57.0087 25.1699C56.9586 25.9679 56.6143 26.7168 56.0454 27.2653C55.4764 27.8139 54.7252 28.1212 53.9433 28.1252C53.1614 28.1293 52.4071 27.8298 51.8328 27.2873C51.2584 26.7447 50.9067 25.9994 50.8487 25.202C47.1858 25.7292 43.7141 27.2002 40.76 29.477C41.2545 30.0899 41.5116 30.8672 41.4827 31.6612C41.4538 32.4553 41.1407 33.2108 40.603 33.7843C40.0518 34.3522 39.3102 34.6847 38.5283 34.7145C37.7464 34.7443 36.9827 34.4692 36.3916 33.9449C35.0412 35.7954 33.9711 37.8434 33.2173 40.0199L40.383 42.334C41.0243 42.5399 41.5841 42.9508 41.9801 43.5063C42.3761 44.0618 42.5874 44.7325 42.583 45.4199V66.6017C45.1025 68.1925 47.9168 69.2323 50.8487 69.6555C50.8978 68.8542 51.2437 68.1022 51.8159 67.5525C52.3881 67.0028 53.1436 66.6969 53.9287 66.6969C54.7137 66.6969 55.4692 67.0028 56.0414 67.5525C56.6137 68.1022 56.9595 68.8542 57.0087 69.6555C60.6805 69.1262 64.1618 67.6556 67.1287 65.3805C66.605 64.7771 66.3264 63.9919 66.3499 63.1855C66.3733 62.379 66.6971 61.6122 67.2549 61.0417C67.8127 60.4712 68.5625 60.1401 69.3511 60.1161C70.1396 60.0921 70.9073 60.377 71.4973 60.9126C73.7219 57.8783 75.1598 54.3179 75.6773 50.5626C74.8966 50.5051 74.1657 50.1491 73.6299 49.5655C73.0942 48.9819 72.7929 48.2134 72.786 47.4129ZM60.5916 50.627H53.9289C53.0962 50.6245 52.2982 50.2851 51.7093 49.6829C51.1204 49.0807 50.7884 48.2646 50.786 47.4129V37.8023C50.7821 37.3776 50.8605 36.9564 51.0167 36.563C51.1729 36.1695 51.4038 35.8116 51.696 35.5099C51.9882 35.2083 52.336 34.9688 52.7193 34.8054C53.1025 34.6419 53.5136 34.5578 53.9288 34.5578C54.344 34.5578 54.7551 34.6419 55.1384 34.8054C55.5216 34.9688 55.8694 35.2083 56.1616 35.5099C56.4538 35.8116 56.6847 36.1695 56.8409 36.563C56.9971 36.9564 57.0755 37.3776 57.0716 37.8023V44.1985H60.5916C61.4201 44.2064 62.212 44.5485 62.795 45.1504C63.3781 45.7524 63.7052 46.5654 63.7052 47.4127C63.7052 48.26 63.3781 49.0731 62.795 49.675C62.212 50.2769 61.4201 50.6191 60.5916 50.627Z" fill="#2D2D2D"/>
<path id="Vector_7" d="M53.9289 82.7696C49.4385 82.7495 44.994 81.844 40.8389 80.1025C41.6921 78.0944 42.2417 75.9653 42.4689 73.7881C46.0698 75.4585 49.9763 76.3286 53.9303 76.341C59.1298 76.3443 64.2295 74.8817 68.6693 72.114C73.109 69.3463 76.7169 65.3807 79.0967 60.6527C81.4764 55.9246 82.5358 50.6173 82.1586 45.3136C81.7813 40.01 79.982 34.9153 76.9583 30.5893C73.9345 26.2633 69.8034 22.8734 65.0188 20.792C60.2341 18.7106 54.9811 18.0183 49.8368 18.7911C44.6925 19.5639 39.856 21.7719 35.8587 25.1725C31.8614 28.5732 28.8579 33.0349 27.1783 38.0674L21.196 36.1333C23.2274 29.9721 26.8812 24.5034 31.7555 20.3289C36.6298 16.1545 42.5356 13.4361 48.823 12.473C55.1104 11.5098 61.5358 12.3391 67.3921 14.8697C73.2484 17.4003 78.3086 21.5341 82.016 26.8161C85.7234 32.0982 87.9342 38.3239 88.4052 44.808C88.8761 51.2922 87.589 57.7836 84.6854 63.568C81.7819 69.3523 77.3744 74.2054 71.948 77.5931C66.5215 80.9809 60.2865 82.7721 53.9289 82.7696Z" fill="#2D2D2D"/>
</g>
</g>
<defs>
<clipPath id="clip0_169_140">
<rect width="88" height="90" fill="white" transform="translate(0.5)"/>
</clipPath>
</defs>
</svg>
