<svg width="91" height="90" viewBox="0 0 91 90" fill="none" xmlns="http://www.w3.org/2000/svg">
<g id="5">
<path id="XMLID_1917_" d="M44.4172 20.3597L34.25 10.1925C39.2225 7.30688 44.9825 5.625 51.1447 5.625C57.8187 5.625 64.0231 7.58812 69.26 10.935C60.8141 12.8166 52.4947 15.9834 44.4172 20.3597Z" fill="#2D2D2D"/>
<path id="XMLID_1916_" d="M48.5685 24.514C57.1494 20.0505 65.9919 17.0355 74.9441 15.5562C73.4647 24.5055 70.4497 33.348 65.9863 41.9318L48.5685 24.514Z" fill="#2D2D2D"/>
<path id="XMLID_1915_" d="M70.1403 46.0829C74.5166 38.0054 77.6834 29.6861 79.565 21.2373C82.9119 26.4742 84.875 32.6786 84.875 39.3554C84.875 45.5204 83.1931 51.2804 80.3075 56.2501L70.1403 46.0829Z" fill="#2D2D2D"/>
<path id="XMLID_1914_" d="M13.4684 73.0547L17.4453 77.0316L10.9259 83.5509C9.82625 84.6506 8.04875 84.6506 6.94906 83.5509C5.84938 82.4513 5.84938 80.6737 6.94906 79.5741L13.4684 73.0547Z" fill="#2D2D2D"/>
<path id="XMLID_1912_" d="M84.875 68.9062C84.875 72.7902 81.7278 75.9374 77.8438 75.9374H73.625V80.1562C73.625 82.4849 71.735 84.3749 69.4063 84.3749C67.0775 84.3749 65.1875 82.4849 65.1875 80.1562V75.9374H39.875V80.1562C39.875 82.4849 37.985 84.3749 35.6563 84.3749C33.3275 84.3749 31.4375 82.4849 31.4375 80.1562V75.9374H27.2188C25.3541 75.9374 23.5653 75.1949 22.2463 73.8787L8.18375 59.8162C5.43594 57.0683 5.43594 52.619 8.18375 49.874C10.9288 47.1262 15.3838 47.1262 18.1259 49.874L27.3875 59.1355L51.3106 35.2124L55.2875 39.1893L32.6019 61.8749H77.8438C81.7278 61.8749 84.875 65.0221 84.875 68.9062Z" fill="#2D2D2D"/>
</g>
</svg>
