<svg width="89" height="88" viewBox="0 0 89 88" fill="none" xmlns="http://www.w3.org/2000/svg">
<g id="7" clip-path="url(#clip0_169_204)">
<g id="Group">
<path id="Vector" d="M88.5 25.7812V82.8438H62.277C55.0712 82.8438 51.2815 87.7298 50.8955 88H38.1045C37.713 87.726 33.9775 82.8438 26.723 82.8438H0.5V20.625H5.65625V77.6875H26.7453C34.8032 77.6875 39.2884 82.2338 40.4059 82.8438H48.5941C49.7111 82.2339 54.1975 77.6875 62.2547 77.6875H83.3438V25.7812H88.5Z" fill="#2D2D2D"/>
<path id="Vector_2" d="M36.7536 74.5886C33.622 73.2342 30.2344 72.5312 26.7453 72.5312H10.8125V10.3125H15.9688V62.2188H23.7031C30.7294 62.2188 36.4769 67.7205 36.7536 74.5886Z" fill="#2D2D2D"/>
<path id="Vector_3" d="M62.2547 15.4688C56.7935 15.4688 51.5336 16.8994 46.897 19.6352C47.0168 20.8063 47.0781 21.9973 47.0781 23.2031V77.5794C47.4234 77.329 47.8182 77.0514 48.268 76.7561C56.2286 71.4469 61.7136 72.5313 78.1875 72.5313V15.4688H62.2547Z" fill="#2D2D2D"/>
<g id="Group_2">
<path id="Vector_4" d="M41.9219 75.1094C41.9219 65.1583 33.749 57.0625 23.7031 57.0625H21.125V0C34.0141 0 41.9219 10.4089 41.9219 23.2031V75.1094Z" fill="#2D2D2D"/>
</g>
</g>
</g>
<defs>
<clipPath id="clip0_169_204">
<rect width="88" height="88" fill="white" transform="translate(0.5)"/>
</clipPath>
</defs>
</svg>
