<svg width="344" height="344" viewBox="0 0 344 344" fill="none" xmlns="http://www.w3.org/2000/svg"><g filter="url(#filter0_d_201_8077)"><rect x="8" y="4" width="328" height="328" rx="25" fill="#0A0A0A"/></g><mask id="mask0_201_8077" style="mask-type:luminance" maskUnits="userSpaceOnUse" x="47" y="149" width="250" height="38"><path d="M296.3 149H47V186.345H296.3V149Z" fill="white"/></mask><g mask="url(#mask0_201_8077)"><mask id="mask1_201_8077" style="mask-type:luminance" maskUnits="userSpaceOnUse" x="48" y="149" width="249" height="38"><path d="M296.835 149.336H48.1504V186.307H296.835V149.336Z" fill="white"/></mask><g mask="url(#mask1_201_8077)"><path d="M154.805 149.599C154.502 149.599 154.482 149.76 154.431 149.982C153.24 155.342 152.049 160.711 150.858 166.071C150.616 167.141 150.374 168.221 150.132 169.29C150.101 169.29 150.081 169.29 150.051 169.29C148.678 162.74 147.306 156.189 145.933 149.639C142.37 149.639 138.837 149.639 135.274 149.639C135.567 150.78 135.87 151.89 136.133 153C136.193 153.253 136.213 153.535 136.162 153.787C134.104 163.063 132.025 172.329 129.955 181.594C129.632 183.057 129.31 184.531 128.977 185.995C129.047 186.015 129.087 186.035 129.138 186.035C131.853 186.035 134.568 186.035 137.283 186.045C137.555 186.045 137.586 185.904 137.636 185.692C138.646 181.14 139.655 176.598 140.674 172.046C141.098 170.149 141.522 168.241 141.946 166.343C141.966 166.343 141.997 166.343 142.017 166.343C143.389 172.904 144.772 179.464 146.144 186.035C149.112 186.035 152.029 186.035 154.996 186.035C157.701 173.913 160.396 161.792 163.101 149.669C163.01 149.639 162.98 149.629 162.949 149.629C160.234 149.609 157.52 149.609 154.805 149.599Z" fill="#F8FF01"/><path d="M105.016 151.043C103.936 150.003 102.563 149.63 101.12 149.62C94.5593 149.589 87.9989 149.6 81.4384 149.6C81.3675 149.6 81.2866 149.61 81.1453 149.62C81.4484 150.78 81.7409 151.88 82.0134 152.991C82.0738 153.223 82.0943 153.495 82.0439 153.727C79.9542 163.124 77.8551 172.521 75.7557 181.918C75.4529 183.27 75.1602 184.612 74.8574 185.975C74.9483 185.985 75.0088 186.005 75.0694 186.005C77.7543 186.005 80.439 186.005 83.1237 186.015C83.4466 186.015 83.4771 185.854 83.5275 185.622C84.3148 182.109 85.1219 178.597 85.9092 175.085C85.9701 174.812 86.061 174.711 86.3435 174.721C86.8482 174.741 87.3529 174.731 87.8676 174.731C88.493 174.731 89.1091 174.731 89.7451 174.731C90.2492 178.516 90.7539 182.251 91.2486 185.985C94.3876 185.985 97.4861 185.985 100.615 185.985C99.9187 182.039 99.2323 178.133 98.5459 174.207C99.727 173.803 100.706 173.177 101.503 172.279C102.634 170.997 103.269 169.453 103.643 167.817C104.38 164.598 105.106 161.368 105.783 158.138C106.035 156.937 106.247 155.706 106.328 154.484C106.419 153.182 105.994 151.981 105.016 151.043ZM97.1631 158.229C96.921 159.39 96.6584 160.551 96.3964 161.711C96.0734 163.134 95.7604 164.558 95.4274 165.98C95.2153 166.899 94.9022 167.161 93.9737 167.171C91.9655 167.192 89.9467 167.181 87.9379 167.181C87.8676 167.181 87.7966 167.161 87.6653 167.141C87.8271 166.364 87.9883 165.617 88.1501 164.87C88.6853 162.418 89.2298 159.955 89.7451 157.502C89.8055 157.189 89.9467 157.139 90.2193 157.139C92.1267 157.149 94.0341 157.139 95.9421 157.149C96.0934 157.149 96.2446 157.149 96.3859 157.179C97.0318 157.27 97.2845 157.593 97.1631 158.229Z" fill="#F8FF01"/><path d="M133.448 153.737C133.286 151.95 132.458 150.567 130.752 149.912C129.965 149.609 129.087 149.417 128.239 149.386C126.321 149.306 124.394 149.366 122.476 149.366C122.476 149.397 122.476 149.417 122.476 149.447C120.246 149.447 118.005 149.346 115.774 149.477C113.403 149.609 111.424 150.638 110.062 152.677C109.264 153.868 108.8 155.2 108.487 156.593C107.175 162.477 105.853 168.351 104.551 174.236C104.107 176.254 103.592 178.263 103.269 180.302C102.734 183.653 104.48 185.853 107.851 186.237C108.003 186.257 108.144 186.287 108.295 186.287C112.464 186.267 116.642 186.328 120.811 186.196C123.193 186.125 125.201 185.076 126.584 183.027C127.392 181.826 127.866 180.483 128.179 179.081C129.794 171.874 131.398 164.678 133.003 157.471C133.276 156.219 133.558 155.008 133.448 153.737ZM124.242 158.107C123.526 161.438 122.779 164.769 122.042 168.089C121.376 171.107 120.7 174.135 120.034 177.153C119.983 177.385 119.923 177.617 119.852 177.839C119.681 178.364 119.327 178.687 118.772 178.697C117.823 178.717 116.865 178.707 115.916 178.707C115.916 178.717 115.916 178.727 115.916 178.747C115.078 178.747 114.25 178.768 113.413 178.747C112.484 178.727 112.232 178.424 112.423 177.506C113.1 174.397 113.786 171.289 114.482 168.18C115.219 164.839 115.966 161.498 116.713 158.157C116.925 157.219 117.278 156.906 118.227 156.896C119.913 156.876 121.598 156.876 123.284 156.896C124.162 156.896 124.434 157.229 124.242 158.107Z" fill="#F8FF01"/><path d="M215.584 153.757C215.423 151.951 214.596 150.558 212.869 149.902C212.082 149.599 211.204 149.417 210.356 149.377C208.449 149.296 206.541 149.356 204.634 149.356C204.634 149.387 204.634 149.407 204.634 149.437C202.383 149.437 200.132 149.336 197.891 149.468C195.54 149.599 193.571 150.618 192.219 152.647C191.411 153.848 190.947 155.201 190.635 156.603C189.02 163.81 187.415 171.006 185.81 178.213C185.537 179.424 185.275 180.625 185.366 181.877C185.497 183.815 186.607 185.329 188.465 185.884C189.332 186.146 190.271 186.257 191.19 186.287C193.157 186.348 195.126 186.318 197.094 186.298C199.062 186.287 201.03 186.328 202.988 186.196C205.37 186.035 207.379 185.056 208.751 183.007C209.559 181.806 210.023 180.454 210.336 179.051C211.951 171.844 213.546 164.648 215.161 157.442C215.413 156.22 215.695 155.009 215.584 153.757ZM206.369 158.138C205.653 161.459 204.916 164.769 204.179 168.079C203.503 171.118 202.837 174.156 202.161 177.193C202.12 177.395 202.06 177.597 201.999 177.799C201.828 178.364 201.464 178.697 200.869 178.717C199.93 178.738 198.992 178.728 198.053 178.728C198.053 178.738 198.053 178.748 198.053 178.758C197.276 178.758 196.499 178.758 195.731 178.758C194.571 178.748 194.329 178.445 194.581 177.305C195.227 174.388 195.873 171.46 196.529 168.544C197.296 165.082 198.063 161.63 198.84 158.168C199.062 157.199 199.425 156.906 200.435 156.896C202.07 156.886 203.715 156.886 205.35 156.896C206.309 156.896 206.571 157.209 206.369 158.138Z" fill="#F8FF01"/><path d="M79.6209 154.525C79.7217 153.222 79.3079 152.011 78.339 151.073C77.2487 150.013 75.8764 149.63 74.4127 149.63C67.8522 149.599 61.3017 149.609 54.7412 149.609C54.6604 149.609 54.5797 149.63 54.4586 149.649C54.7513 150.78 55.044 151.89 55.3165 153.001C55.377 153.233 55.3973 153.505 55.3468 153.737C53.2878 162.993 51.2187 172.248 49.1597 181.493C48.8266 182.987 48.4935 184.481 48.1504 185.995C48.2513 186.005 48.332 186.025 48.4027 186.025C51.0673 186.025 53.742 186.025 56.4065 186.035C56.7194 186.035 56.7598 185.884 56.8204 185.642C57.5572 182.372 58.294 179.111 59.0308 175.841C59.2831 174.741 59.273 174.741 60.3833 174.731C63.4415 174.711 66.4896 174.741 69.5478 174.63C71.3747 174.57 73.0501 173.934 74.4026 172.642C75.6945 171.41 76.4315 169.846 76.8349 168.14C77.5922 164.95 78.2985 161.761 78.9849 158.552C79.2575 157.239 79.5096 155.887 79.6209 154.525ZM70.436 158.289C69.9414 160.571 69.4267 162.851 68.922 165.132C68.8312 165.557 68.7303 165.97 68.599 166.384C68.4578 166.838 68.1247 167.141 67.6503 167.141C65.45 167.161 63.2497 167.151 60.9585 167.151C61.1604 166.232 61.3522 165.344 61.544 164.456C62.0486 162.145 62.5634 159.834 63.0478 157.522C63.1185 157.199 63.2396 157.128 63.5525 157.128C65.4399 157.138 67.3374 157.138 69.2248 157.138C69.3459 157.138 69.467 157.138 69.5781 157.148C70.3149 157.229 70.5874 157.562 70.436 158.289Z" fill="#F8FF01"/><path d="M189.999 149.639C181.723 149.639 173.507 149.639 165.281 149.639C164.715 152.142 164.15 154.615 163.575 157.148C166.29 157.148 168.935 157.148 171.639 157.148C169.5 166.797 167.38 176.386 165.251 185.994C168.147 185.994 170.983 185.994 173.83 185.994C175.959 176.366 178.089 166.767 180.228 157.128C182.934 157.128 185.608 157.128 188.293 157.128C188.869 154.604 189.434 152.132 189.999 149.639Z" fill="#F8FF01"/><path d="M242.906 154.534C243.018 153.263 242.624 152.082 241.695 151.143C240.605 150.033 239.192 149.649 237.698 149.639C231.158 149.609 224.608 149.619 218.067 149.619C217.966 149.619 217.865 149.639 217.734 149.649C218.027 150.78 218.32 151.89 218.592 153C218.653 153.252 218.673 153.535 218.622 153.787C216.412 163.719 214.191 173.66 211.971 183.593C211.789 184.4 211.618 185.197 211.446 186.005C211.537 186.025 211.557 186.035 211.588 186.035C217.593 186.035 223.598 186.045 229.604 186.015C231.047 186.005 232.44 185.692 233.732 184.995C235.629 183.966 236.78 182.311 237.315 180.292C238.132 177.203 238.798 174.074 239.515 170.956C239.545 170.815 239.434 170.592 239.324 170.461C238.496 169.472 237.648 168.493 236.79 167.494C236.881 167.413 236.961 167.343 237.042 167.282C238.233 166.414 239.434 165.556 240.616 164.678C240.797 164.547 240.958 164.304 241.009 164.082C241.433 162.286 241.867 160.489 242.24 158.682C242.513 157.29 242.786 155.917 242.906 154.534ZM230.563 172.51C230.209 174.135 229.856 175.77 229.472 177.385C229.301 178.122 228.998 178.445 228.292 178.455C226.132 178.485 223.972 178.465 221.731 178.465C221.933 177.557 222.125 176.709 222.306 175.851C222.619 174.428 222.942 173.004 223.245 171.581C223.306 171.319 223.386 171.188 223.699 171.188C225.637 171.208 227.575 171.188 229.513 171.198C230.512 171.208 230.774 171.531 230.563 172.51ZM233.712 158.329C233.409 159.742 233.096 161.145 232.763 162.548C232.581 163.305 232.238 163.638 231.501 163.638C229.362 163.659 227.211 163.649 225.012 163.649C225.486 161.448 225.95 159.309 226.414 157.148C228.584 157.148 230.714 157.128 232.843 157.158C233.601 157.178 233.873 157.572 233.712 158.329Z" fill="white"/><path d="M244.584 149.649C244.886 150.8 245.179 151.91 245.451 153.02C245.512 153.252 245.532 153.525 245.482 153.757C243.302 163.547 241.111 173.337 238.921 183.128C238.709 184.077 238.497 185.036 238.285 186.005C238.397 186.015 238.457 186.025 238.507 186.025C244.886 186.025 251.265 186.025 257.654 186.015C257.815 186.015 258.037 185.873 258.138 185.732C259.733 183.451 261.308 181.15 262.892 178.859C262.953 178.768 263.013 178.667 263.114 178.505C258.25 178.505 253.465 178.505 248.611 178.505C248.631 178.333 248.631 178.243 248.641 178.162C249.125 175.972 249.62 173.772 250.094 171.581C250.165 171.268 250.296 171.188 250.599 171.188C253.132 171.198 255.666 171.188 258.199 171.198C258.502 171.198 258.683 171.117 258.855 170.854C260.409 168.574 261.984 166.313 263.548 164.042C263.619 163.941 263.679 163.82 263.78 163.658C259.774 163.658 255.827 163.658 251.85 163.658C252.295 161.589 252.748 159.571 253.162 157.542C253.233 157.199 253.374 157.128 253.697 157.128C257.109 157.138 260.53 157.128 263.942 157.138C264.244 157.138 264.416 157.047 264.588 156.795C266.132 154.534 267.696 152.273 269.251 150.022C269.332 149.902 269.402 149.78 269.483 149.639C261.166 149.649 252.9 149.649 244.584 149.649Z" fill="white"/><path d="M272.127 149.639C271.562 152.142 270.996 154.615 270.421 157.148C273.136 157.148 275.78 157.148 278.485 157.148C276.345 166.797 274.226 176.396 272.086 186.015C274.963 186.015 277.799 186.015 280.675 186.015C282.815 176.386 284.935 166.777 287.075 157.138C289.779 157.138 292.454 157.138 295.139 157.138C295.714 154.615 296.279 152.142 296.844 149.639C288.568 149.639 280.352 149.639 272.127 149.639Z" fill="white"/></g></g><defs><filter id="filter0_d_201_8077" x="0" y="0" width="344" height="344" filterUnits="userSpaceOnUse" color-interpolation-filters="sRGB"><feFlood flood-opacity="0" result="BackgroundImageFix"/><feColorMatrix in="SourceAlpha" type="matrix" values="0 0 0 0 0 0 0 0 0 0 0 0 0 0 0 0 0 0 127 0" result="hardAlpha"/><feOffset dy="4"/><feGaussianBlur stdDeviation="4"/><feComposite in2="hardAlpha" operator="out"/><feColorMatrix type="matrix" values="0 0 0 0 0 0 0 0 0 0 0 0 0 0 0 0 0 0 0.15 0"/><feBlend mode="normal" in2="BackgroundImageFix" result="effect1_dropShadow_201_8077"/><feBlend mode="normal" in="SourceGraphic" in2="effect1_dropShadow_201_8077" result="shape"/></filter></defs></svg>