<svg width="344" height="344" viewBox="0 0 344 344" fill="none" xmlns="http://www.w3.org/2000/svg"><g filter="url(#filter0_d_201_8172)"><rect x="8" y="4" width="328" height="328" rx="25" fill="black"/></g><g clip-path="url(#clip0_201_8172)"><path fill-rule="evenodd" clip-rule="evenodd" d="M34.8653 142H75.0846C76.6402 142 78.1321 142.619 79.232 143.72C80.332 144.821 80.95 146.314 80.95 147.871C80.95 149.428 80.332 150.921 79.232 152.022C78.1321 153.123 76.6402 153.742 75.0846 153.742H34.8653C33.3097 153.742 31.8179 153.123 30.7179 152.022C29.618 150.921 29 149.428 29 147.871C29 146.314 29.618 144.821 30.7179 143.72C31.8179 142.619 33.3097 142 34.8653 142ZM69.2193 178.065C69.2193 177.514 69.111 176.969 68.9004 176.46C68.6899 175.951 68.3813 175.489 67.9922 175.099C67.6032 174.71 67.1414 174.401 66.6331 174.19C66.1248 173.979 65.58 173.871 65.0298 173.871H34.8653C33.3097 173.871 31.8179 173.252 30.7179 172.151C29.618 171.05 29 169.557 29 168C29 166.443 29.618 164.95 30.7179 163.849C31.8179 162.748 33.3097 162.129 34.8653 162.129H70.8951C73.5618 162.129 76.1193 163.189 78.005 165.077C79.8906 166.964 80.95 169.524 80.95 172.194V183.935C80.95 186.605 79.8906 189.165 78.005 191.052C76.1193 192.94 73.5618 194 70.8951 194H34.8653C33.3097 194 31.8179 193.381 30.7179 192.28C29.618 191.179 29 189.686 29 188.129C29 186.572 29.618 185.079 30.7179 183.978C31.8179 182.877 33.3097 182.258 34.8653 182.258H65.0298C65.58 182.258 66.1248 182.15 66.6331 181.939C67.1414 181.728 67.6032 181.419 67.9922 181.03C68.3813 180.64 68.6899 180.178 68.9004 179.669C69.111 179.161 69.2193 178.615 69.2193 178.065Z" fill="#D0021B"/><path d="M279.54 172.707C279.54 169.593 278.801 167.171 277.323 165.445C275.845 163.719 273.807 162.855 271.214 162.855C270.228 162.855 269.335 163.016 268.529 163.342C267.728 163.663 267.026 164.076 266.428 164.569V154.133H260.707V181.978H264.87L265.221 180.264H265.375C265.973 180.943 266.699 181.467 267.556 181.843C268.412 182.219 269.452 182.404 270.672 182.404C271.941 182.404 273.117 182.188 274.188 181.744C275.266 181.3 276.202 180.659 276.991 179.814C277.785 178.97 278.407 177.953 278.863 176.757C279.313 175.567 279.54 174.217 279.54 172.707ZM273.628 172.867C273.628 173.773 273.505 174.562 273.258 175.24C273.012 175.912 272.673 176.473 272.248 176.917C271.817 177.355 271.331 177.681 270.789 177.891C270.241 178.094 269.674 178.199 269.077 178.199C268.553 178.199 268.061 178.094 267.599 177.891C267.131 177.681 266.755 177.41 266.465 177.071V168.656C266.724 168.348 267.137 168.028 267.691 167.701C268.251 167.38 268.843 167.214 269.465 167.214C270.789 167.214 271.811 167.682 272.538 168.619C273.265 169.556 273.628 170.968 273.628 172.867ZM299.932 174.303V171.85C299.932 168.971 299.168 166.752 297.635 165.192C296.107 163.632 294.056 162.855 291.488 162.855C290.084 162.855 288.809 163.096 287.658 163.577C286.5 164.058 285.508 164.736 284.677 165.617C283.845 166.505 283.205 167.559 282.749 168.792C282.299 170.025 282.072 171.381 282.072 172.867C282.072 174.525 282.349 175.955 282.909 177.151C283.463 178.341 284.215 179.327 285.163 180.11C286.112 180.887 287.214 181.467 288.471 181.843C289.733 182.219 291.057 182.404 292.461 182.404C294.02 182.404 295.331 182.274 296.409 182.015C297.487 181.756 298.374 181.46 299.076 181.121L298.023 177.151C297.481 177.435 296.803 177.681 296.003 177.891C295.196 178.094 294.266 178.199 293.2 178.199C291.667 178.199 290.398 177.903 289.388 177.305C288.372 176.707 287.867 175.758 287.867 174.464V174.303H299.932ZM294.056 170.37L287.984 170.45C288.089 169.359 288.44 168.496 289.037 167.861C289.635 167.226 290.386 166.906 291.291 166.906C291.784 166.906 292.209 167.004 292.56 167.195C292.905 167.393 293.194 167.652 293.416 167.978C293.632 168.299 293.798 168.669 293.903 169.088C294.001 169.501 294.056 169.933 294.056 170.37ZM315.027 167.411V163.281H310.242V157.597H304.52V163.281H301.607V167.411H304.52V176.331C304.52 178.224 305.019 179.642 306.023 180.579C307.021 181.51 308.727 181.978 311.135 181.978C312.151 181.978 313.105 181.867 313.998 181.645C314.891 181.423 315.563 181.201 316 180.967L315.144 177.034C314.861 177.213 314.46 177.355 313.937 177.46C313.419 177.564 312.902 177.614 312.385 177.614C311.707 177.614 311.184 177.447 310.808 177.108C310.433 176.769 310.242 176.177 310.242 175.32V167.411H315.027Z" fill="white"/><path d="M99.0994 181.207C100.867 181.558 102.782 181.731 104.858 181.731C108.387 181.731 111.158 180.923 113.166 179.302C115.18 177.674 116.196 175.449 116.221 172.619C116.221 170.696 115.826 169.124 115.032 167.903C114.244 166.689 113.252 165.764 112.057 165.142C110.863 164.519 109.44 163.97 107.777 163.508L105.092 162.768C104.002 162.454 103.189 162.183 102.641 161.948C102.099 161.714 101.692 161.424 101.434 161.073C101.175 160.722 101.046 160.247 101.046 159.649C101.046 158.767 101.317 158.089 101.865 157.627C102.407 157.158 103.367 156.924 104.741 156.924C108.479 156.924 111.823 157.713 114.78 159.298V153.225C113.172 152.467 111.602 151.912 110.074 151.549C108.541 151.185 106.767 151 104.741 151C101.372 151 98.7545 151.795 96.9008 153.38C95.047 154.964 94.117 157.276 94.117 160.309C94.117 162.158 94.5235 163.662 95.3241 164.827C96.1309 165.999 97.104 166.874 98.2434 167.46C99.3827 168.045 100.738 168.557 102.29 168.995L104.938 169.734C106.57 170.178 107.703 170.616 108.344 171.041C108.978 171.473 109.292 172.114 109.292 172.971C109.292 173.828 108.941 174.512 108.227 175.036C107.512 175.554 106.391 175.813 104.858 175.813C100.916 175.813 97.2949 174.944 94 173.205V179.512C95.6382 180.294 97.338 180.855 99.0994 181.207ZM140.732 175.461H128.052V169.038H138.595V163.428H128.052V157.158H140.541V151.549H121.049V181.071H140.732V175.461ZM163.926 175.073H153.185V151.549H146.183V181.071H163.926V175.073ZM188.284 175.461H175.597V169.038H186.147V163.428H175.597V157.158H188.093V151.549H168.594V181.071H188.284V175.461ZM195.853 177.644C198.433 180.368 202.32 181.731 207.505 181.731C209.014 181.731 210.591 181.534 212.254 181.127C213.916 180.726 215.499 180.134 217.002 179.357L214.939 173.63C213.615 174.333 212.358 174.87 211.163 175.246C209.969 175.628 208.749 175.813 207.505 175.813C204.863 175.813 202.794 174.95 201.297 173.224C199.807 171.497 199.062 169.204 199.062 166.35C199.062 164.556 199.425 162.947 200.152 161.517C200.878 160.093 201.895 158.971 203.206 158.151C204.518 157.331 206.015 156.924 207.702 156.924C210.141 156.924 212.463 157.454 214.668 158.521V152.443C213.424 151.925 212.26 151.555 211.182 151.333C210.104 151.111 208.879 151 207.505 151C204.161 151 201.322 151.678 198.988 153.028C196.647 154.378 194.898 156.215 193.734 158.539C192.564 160.863 191.979 163.477 191.979 166.387C191.979 171.165 193.272 174.919 195.853 177.644ZM243.035 157.547V151.549H219.921V157.547H227.977V181.071H234.979V157.547H243.035Z" fill="white"/><path d="M243.804 181.144C244.598 181.982 245.571 182.401 246.717 182.401H248.565C249.802 182.401 250.794 181.982 251.539 181.144C252.291 180.305 252.666 179.27 252.666 178.031V176.311C252.666 175.078 252.272 174.042 251.478 173.204C250.683 172.365 249.71 171.946 248.565 171.946H246.717C245.571 171.946 244.598 172.365 243.804 173.204C243.009 174.042 242.615 175.078 242.615 176.311V178.031C242.615 179.27 243.009 180.305 243.804 181.144Z" fill="white"/></g><defs><filter id="filter0_d_201_8172" x="0" y="0" width="344" height="344" filterUnits="userSpaceOnUse" color-interpolation-filters="sRGB"><feFlood flood-opacity="0" result="BackgroundImageFix"/><feColorMatrix in="SourceAlpha" type="matrix" values="0 0 0 0 0 0 0 0 0 0 0 0 0 0 0 0 0 0 127 0" result="hardAlpha"/><feOffset dy="4"/><feGaussianBlur stdDeviation="4"/><feComposite in2="hardAlpha" operator="out"/><feColorMatrix type="matrix" values="0 0 0 0 0 0 0 0 0 0 0 0 0 0 0 0 0 0 0.15 0"/><feBlend mode="normal" in2="BackgroundImageFix" result="effect1_dropShadow_201_8172"/><feBlend mode="normal" in="SourceGraphic" in2="effect1_dropShadow_201_8172" result="shape"/></filter><clipPath id="clip0_201_8172"><rect width="287" height="52" fill="white" transform="translate(29 142)"/></clipPath></defs></svg>