<svg width="89" height="88" viewBox="0 0 89 88" fill="none" xmlns="http://www.w3.org/2000/svg">
<g id="3" clip-path="url(#clip0_169_221)">
<g id="Group">
<g id="Group_2">
<path id="Vector" d="M65.1248 31.1104C52.3301 31.1104 41.9219 41.5184 41.9219 54.3131C41.9219 67.1079 52.3299 77.5159 65.1247 77.5159C77.9194 77.5159 88.4993 67.1079 88.4993 54.3131C88.4993 41.5184 77.9195 31.1104 65.1248 31.1104ZM67.7707 66.7378C67.7483 66.7461 67.725 66.7423 67.7026 66.75V69.7817C67.7026 71.2067 66.5495 72.3598 65.1245 72.3598C63.6995 72.3598 62.5464 71.2067 62.5464 69.7817V66.7325C60.8484 66.1588 59.2214 65.0701 57.8306 63.412C56.9142 62.3218 57.0551 60.6954 58.1479 59.7815C59.2381 58.8651 60.8695 59.006 61.7784 60.0988C63.1429 61.7227 64.6864 62.3672 66.0057 61.8939C67.0203 61.5238 67.7026 60.5494 67.7026 59.4694C67.7026 58.0469 66.5469 56.8913 65.1245 56.8913C60.8596 56.8913 57.3903 53.4218 57.3903 49.1571C57.3903 46.0427 59.2433 43.2454 62.111 42.0321C62.253 41.972 62.4034 41.9754 62.5465 41.9242V38.8447C62.5465 37.4197 63.6996 36.2666 65.1247 36.2666C66.5497 36.2666 67.7028 37.4197 67.7028 38.8447V41.9289C69.0377 42.3799 70.3395 43.0967 71.5019 44.2225C72.524 45.212 72.5493 46.8434 71.5573 47.8682C70.5678 48.8903 68.9338 48.913 67.9116 47.9235C66.6578 46.7075 65.2706 46.2895 64.1225 46.7805C63.1658 47.1858 62.5464 48.1174 62.5464 49.1572C62.5464 50.5797 63.7021 51.7354 65.1245 51.7354C69.3894 51.7354 72.8587 55.2048 72.8587 59.4696C72.859 62.7096 70.8146 65.6301 67.7707 66.7378Z" fill="#2D2D2D"/>
</g>
</g>
<g id="Group_3">
<g id="Group_4">
<path id="Vector_2" d="M3.07883 56.8911C1.65381 56.8911 0.500702 58.0442 0.500702 59.4692V85.422C0.500702 86.847 1.65381 88.0001 3.07883 88.0001H10.813V56.8911H3.07883Z" fill="#2D2D2D"/>
</g>
</g>
<g id="Group_5">
<g id="Group_6">
<path id="Vector_3" d="M61.6454 16.0917L43.5987 0.623133C42.6369 -0.207711 41.2069 -0.207711 40.2451 0.623133L22.1985 16.0917C21.3778 16.7916 21.0832 17.9296 21.4583 18.9417C21.8309 19.9539 22.7951 20.6261 23.8753 20.6261H31.6095C31.6095 42.9147 31.6095 65.7103 31.6095 88.0003C38.2511 88.0003 42.8428 88.0003 49.6562 88.0003C51.0813 88.0003 52.2344 86.8471 52.2344 85.4221V79.5416C43.0662 74.8375 36.7658 65.3071 36.7658 54.3133C36.7658 43.3196 43.0664 33.789 52.2344 29.0849V20.6263H59.9686C61.0486 20.6263 62.013 19.9541 62.3857 18.9419C62.7609 17.9296 62.4663 16.7916 61.6454 16.0917Z" fill="#2D2D2D"/>
</g>
</g>
<g id="Group_7">
<g id="Group_8">
<path id="Vector_4" d="M18.7191 36.2666C17.2941 36.2666 16.141 37.4197 16.141 38.8447V56.8914V88.0001C19.9067 88.0001 22.797 88.0001 26.4533 88.0001V36.2666H18.7191Z" fill="#2D2D2D"/>
</g>
</g>
</g>
<defs>
<clipPath id="clip0_169_221">
<rect width="88" height="88" fill="white" transform="translate(0.5)"/>
</clipPath>
</defs>
</svg>
