<svg width="150" height="50" viewBox="0 0 150 50" fill="none" xmlns="http://www.w3.org/2000/svg">
<rect width="150" height="50" transform="matrix(1 0 0 -1 0 50)" fill="#08AE60"/>
<g clip-path="url(#clip0_156_5757)">
<path d="M53.3025 10.7969H56.2191C58.9534 10.7969 60.8903 12.3927 60.8903 14.6516C60.8903 16.9105 58.9534 18.5176 56.2191 18.5176H53.3025V10.7969ZM56.5837 16.5396C57.7686 16.5396 58.6117 15.753 58.6117 14.6516C58.6117 13.5503 57.7686 12.7748 56.5837 12.7748H55.5127V16.5396H56.5837Z" fill="white"/>
<path d="M62.0068 10.7969H64.217V18.5176H62.0068V10.7969Z" fill="white"/>
<path d="M69.2072 13.9999H72.8757V17.2815C72.0668 18.1468 70.8706 18.6525 69.6401 18.6525C67.2931 18.6525 65.3221 16.8207 65.3221 14.6517C65.3221 12.4827 67.2931 10.6621 69.6401 10.6621C70.8706 10.6621 72.0668 11.1678 72.8757 12.0219L71.2465 13.4267C70.8592 12.9322 70.2667 12.64 69.6401 12.64C68.535 12.64 67.6008 13.5616 67.6008 14.6517C67.6008 15.7418 68.535 16.6746 69.6401 16.6746C70.0275 16.6746 70.4034 16.5622 70.7338 16.3599V15.607H69.2072V13.9999Z" fill="white"/>
<path d="M74.1062 10.7969H76.3165V18.5176H74.1062V10.7969Z" fill="white"/>
<path d="M79.6091 12.7411H77.2963V10.7969H84.1321V12.7411H81.8193V18.5176H79.6091V12.7411Z" fill="white"/>
<path d="M89.5552 17.4837H86.8323L86.4335 18.5176H83.9384L86.9462 10.7969H89.4413L92.449 18.5176H89.9539L89.5552 17.4837ZM88.9286 15.8766L88.1994 13.9998L87.4589 15.8766H88.9286Z" fill="white"/>
<path d="M99.0001 16.5734V18.5176H93.144V10.7969H95.3543V16.5734H99.0001Z" fill="white"/>
<path d="M52.71 27.72L53.9405 26.2702C54.738 26.8884 55.6039 27.2143 56.5267 27.2143C57.1305 27.2143 57.4495 27.012 57.4495 26.6748C57.4495 26.304 57.1761 26.2478 56.0938 26.0005C54.3962 25.6184 53.086 25.1801 53.086 23.5731C53.086 21.966 54.3164 21.0332 56.1735 21.0332C57.5293 21.0332 58.5888 21.3928 59.4547 22.0784L58.3496 23.618C57.6204 23.101 56.8229 22.8426 56.1165 22.8426C55.5811 22.8426 55.319 23.0561 55.319 23.3483C55.319 23.7416 55.5925 23.8653 56.709 24.1013C58.5319 24.4834 59.6712 24.9666 59.6712 26.4388C59.6712 28.0684 58.4066 29.0236 56.4469 29.0236C55.0342 29.0236 53.7012 28.5853 52.71 27.72Z" fill="white"/>
<path d="M62.8726 23.1122V23.9775H66.5981V25.9218H62.8726V26.9445H66.9627V28.8887H60.6624V21.168H66.9627V23.1122H62.8726Z" fill="white"/>
<path d="M70.2895 23.1122V23.9775H74.0151V25.9218H70.2895V26.9445H74.3796V28.8887H68.0793V21.168H74.3796V23.1122H70.2895Z" fill="white"/>
<path d="M75.4962 21.168H78.4128C81.1471 21.168 83.0839 22.7638 83.0839 25.0227C83.0839 27.2816 81.1471 28.8887 78.4128 28.8887H75.4962V21.168ZM78.7774 26.9107C79.9622 26.9107 80.8053 26.1241 80.8053 25.0227C80.8053 23.9214 79.9622 23.1459 78.7774 23.1459H77.7064V26.9107H78.7774Z" fill="white"/>
<path d="M52.71 38.0344L53.9405 36.5847C54.738 37.2028 55.6039 37.5287 56.5267 37.5287C57.1305 37.5287 57.4495 37.3264 57.4495 36.9893C57.4495 36.6184 57.1761 36.5622 56.0938 36.315C54.3962 35.9329 53.086 35.4946 53.086 33.8875C53.086 32.2804 54.3164 31.3477 56.1735 31.3477C57.5293 31.3477 58.5888 31.7073 59.4547 32.3928L58.3496 33.9325C57.6204 33.4155 56.8229 33.157 56.1165 33.157C55.5811 33.157 55.319 33.3705 55.319 33.6627C55.319 34.0561 55.5925 34.1797 56.709 34.4157C58.5319 34.7978 59.6712 35.2811 59.6712 36.7533C59.6712 38.3828 58.4066 39.3381 56.4469 39.3381C55.0342 39.3381 53.7012 38.8998 52.71 38.0344Z" fill="white"/>
<path d="M62.5536 33.4266H60.2408V31.4824H67.0767V33.4266H64.7639V39.2031H62.5536V33.4266Z" fill="white"/>
<path d="M67.9426 35.7754V31.4824H70.1528V35.6631C70.1528 36.652 70.7794 37.36 71.6681 37.36C72.5568 37.36 73.1834 36.652 73.1834 35.6631V31.4824H75.3936V35.7754C75.3936 37.8658 73.8556 39.338 71.6681 39.338C69.4806 39.338 67.9426 37.8658 67.9426 35.7754Z" fill="white"/>
<path d="M76.681 31.4824H79.5977C82.332 31.4824 84.2688 33.0783 84.2688 35.3372C84.2688 37.5961 82.332 39.2031 79.5977 39.2031H76.681V31.4824ZM79.9622 37.2252C81.1471 37.2252 81.9902 36.4385 81.9902 35.3372C81.9902 34.2358 81.1471 33.4604 79.9622 33.4604H78.8913V37.2252H79.9622Z" fill="white"/>
<path d="M85.3853 31.4824H87.5956V39.2031H85.3853V31.4824Z" fill="white"/>
<path d="M88.7007 35.3372C88.7007 33.1683 90.6489 31.3477 92.9617 31.3477C95.2745 31.3477 97.2227 33.1683 97.2227 35.3372C97.2227 37.5062 95.2745 39.3381 92.9617 39.3381C90.6489 39.3381 88.7007 37.5062 88.7007 35.3372ZM94.9441 35.3372C94.9441 34.2471 94.0326 33.3256 92.9617 33.3256C91.8907 33.3256 90.9793 34.2471 90.9793 35.3372C90.9793 36.4274 91.8907 37.3601 92.9617 37.3601C94.0326 37.3601 94.9441 36.4386 94.9441 35.3372Z" fill="white"/>
<path d="M38.3604 15.2004C36.8774 15.2004 35.4096 15.4757 34.0387 16.0189C32.6696 16.5602 31.424 17.3544 30.3758 18.3565L29.9884 18.7273L29.9011 18.201C29.4435 15.4626 27.9795 12.9696 25.773 11.1677C23.5646 9.36584 20.7563 8.375 17.8529 8.375H11V13.215C11 16.3055 12.2836 19.2724 14.5698 21.462C16.8579 23.6516 19.9625 24.8822 23.2001 24.8822H27.0509V36.4127C25.8641 36.9671 25.0419 38.1583 25.0419 39.5388C25.0419 41.4512 26.6142 43.0021 28.5529 43.0021C30.4916 43.0021 32.0639 41.4512 32.0639 39.5388C32.0639 38.1565 31.2417 36.9671 30.053 36.4127V30.0012H34.7944C37.7965 30.0012 40.6732 28.8605 42.7942 26.832C44.9133 24.8035 46.1039 22.0539 46.1039 19.19V15.2023H38.3623L38.3604 15.2004ZM26.768 22.0258H23.202C20.7639 22.0258 18.4245 21.0986 16.7003 19.4485C14.9743 17.7964 14.0021 15.5544 14.0021 13.215V11.2295H17.8529C20.291 11.2295 22.6304 12.1567 24.3565 13.8068C26.0825 15.4589 27.0547 17.7009 27.0547 20.0403V22.0258H26.7718H26.768ZM43.1018 18.334V19.1881C43.1018 21.3009 42.2246 23.3275 40.6656 24.8185C39.1067 26.3094 36.9952 27.1467 34.7944 27.1467H30.053V26.0135C30.053 23.9007 30.9303 21.8741 32.4892 20.3831C34.0482 18.8922 36.1597 18.0549 38.3604 18.0549H43.1018V18.334Z" fill="white"/>
<path d="M27.1136 9.56608C27.2142 9.64849 27.3073 9.73465 27.406 9.81894C27.7839 9.78897 28.1655 9.77024 28.5529 9.77024C32.098 9.77024 35.3489 11.0364 37.8667 13.1324C38.0262 13.1267 38.1857 13.1211 38.3471 13.1211H41.8125C38.6434 9.38065 33.8792 7 28.551 7C26.9598 7 25.4217 7.21727 23.9596 7.61249C25.0875 8.12383 26.1509 8.77752 27.1136 9.5642V9.56608Z" fill="white"/>
<path d="M44.2601 28.3209C43.4322 29.1132 42.5132 29.7875 41.5296 30.3381C39.9535 33.483 37.2363 35.976 33.9152 37.289C34.2133 37.9802 34.3785 38.7406 34.3785 39.5386C34.3785 39.7259 34.369 39.9113 34.3501 40.093C40.1795 38.0439 44.5658 32.9922 45.595 26.8262C45.1925 27.3544 44.7462 27.8563 44.2601 28.3209Z" fill="white"/>
<path d="M14.0856 24.0395C14.0856 23.9627 14.0894 23.8878 14.0913 23.811C13.7514 23.5394 13.421 23.2547 13.1039 22.9513C12.5229 22.395 11.9988 21.79 11.5298 21.1494C11.3665 22.0897 11.2772 23.0543 11.2772 24.0395C11.2772 31.4437 16.0661 37.7409 22.7519 40.0916C22.7348 39.908 22.7235 39.7244 22.7235 39.5371C22.7235 38.7392 22.8886 37.9788 23.1868 37.2876C17.8586 35.1804 14.0837 30.0389 14.0837 24.0395H14.0856Z" fill="white"/>
</g>
<defs>
<clipPath id="clip0_156_5757">
<rect width="88" height="36" fill="white" transform="translate(11 7)"/>
</clipPath>
</defs>
</svg>
